<svg width="1280" height="600" viewBox="0 0 1280 600" fill="none" xmlns="http://www.w3.org/2000/svg">
<rect width="1280" height="600" fill="white"/>
<g clip-path="url(#clip0_5_17)">
<g clip-path="url(#clip1_5_17)">
<path d="M469.141 203.125L301.562 111.719L133.984 203.125L301.562 299.609L469.141 203.125Z" fill="#D8670A"/>
<path d="M299.609 487.5V298.438L125.391 205.469V395.312L299.609 487.5Z" fill="#FFEB40"/>
<path d="M300.781 489.844V300.781L475 207.812V397.656L300.781 489.844Z" fill="white"/>
<path d="M323.584 107.169C324.629 107.733 325.673 108.297 326.718 108.861C333.619 112.594 340.464 116.426 347.279 120.317C352.826 123.478 358.432 126.521 364.062 129.532C370.457 132.952 376.807 136.436 383.106 140.03C390.182 144.067 397.339 147.939 404.532 151.765C410.754 155.076 416.926 158.458 423.046 161.954C429.711 165.758 436.441 169.428 443.213 173.037C451.512 177.464 459.802 181.897 467.968 186.563C468.817 187.04 469.664 187.516 470.539 188.007C477.862 192.34 482.386 198.05 485.156 206.094C485.57 208.718 485.586 211.283 485.564 213.936C485.57 214.694 485.575 215.453 485.582 216.235C485.598 218.761 485.592 221.287 485.586 223.812C485.593 225.63 485.6 227.448 485.61 229.265C485.631 234.192 485.632 239.119 485.628 244.044C485.625 248.684 485.636 253.323 485.644 257.962C485.661 267.714 485.657 277.466 485.648 287.216C485.639 296.122 485.657 305.026 485.687 313.931C485.718 323.091 485.73 332.252 485.725 341.412C485.722 346.548 485.725 351.684 485.747 356.821C485.767 361.653 485.764 366.484 485.743 371.316C485.74 373.085 485.744 374.854 485.757 376.622C485.872 393.665 485.872 393.665 480.468 401.407C479.937 402.244 479.405 403.083 478.857 403.946C472.782 410.453 462.779 414.355 455.066 418.496C449.624 421.419 444.232 424.419 438.867 427.481C432.136 431.316 425.342 435.019 418.506 438.662C411.479 442.408 404.479 446.192 397.528 450.08C392.683 452.789 387.82 455.466 382.959 458.145C380.998 459.226 379.036 460.308 377.075 461.389C376.582 461.662 376.089 461.933 375.58 462.213C372.139 464.112 368.698 466.012 365.259 467.914C355.672 473.214 346.079 478.5 336.434 483.693C332.599 485.759 328.779 487.846 324.979 489.975C324.211 490.402 323.443 490.83 322.653 491.269C321.213 492.073 319.775 492.881 318.343 493.698C311.026 497.762 303.441 500.556 295.023 498.642C290.48 497.296 286.427 495.574 282.275 493.301C281.644 492.962 281.012 492.624 280.362 492.275C274.667 489.201 269.046 485.996 263.424 482.79C257.44 479.39 251.389 476.123 245.312 472.891C237.849 468.922 230.454 464.85 223.111 460.66C217.536 457.489 211.906 454.431 206.25 451.407C199.855 447.987 193.506 444.503 187.207 440.909C180.592 437.135 173.911 433.499 167.187 429.923C158.825 425.473 150.539 420.903 142.318 416.196C139.771 414.739 137.208 413.325 134.61 411.96C125.984 407.398 119.513 402.433 116.406 392.813C115.442 389.106 115.511 385.471 115.515 381.668C115.513 380.937 115.511 380.205 115.508 379.451C115.501 376.998 115.5 374.545 115.499 372.093C115.496 370.334 115.492 368.576 115.487 366.818C115.477 362.04 115.472 357.262 115.468 352.484C115.466 349.498 115.463 346.512 115.46 343.526C115.45 335.253 115.442 326.98 115.439 318.706C115.439 318.176 115.439 317.648 115.439 317.102C115.439 316.572 115.439 316.041 115.439 315.495C115.438 314.42 115.438 313.345 115.437 312.271C115.437 311.737 115.437 311.205 115.437 310.655C115.434 302.022 115.42 293.388 115.402 284.755C115.383 275.883 115.374 267.01 115.373 258.137C115.372 253.159 115.368 248.181 115.354 243.204C115.34 238.519 115.339 233.835 115.346 229.151C115.346 227.434 115.343 225.718 115.335 224.001C115.325 221.652 115.33 219.304 115.338 216.955C115.332 216.28 115.325 215.607 115.319 214.912C115.382 207.083 117.674 200.417 122.656 194.376C127.868 189.556 134.075 186.291 140.283 182.95C141.288 182.403 142.293 181.855 143.297 181.308C145.828 179.928 148.363 178.556 150.9 177.187C153.102 175.998 155.301 174.805 157.501 173.612C159.865 172.33 162.23 171.05 164.597 169.772C169.596 167.069 174.575 164.335 179.538 161.567C185.97 157.98 192.421 154.426 198.871 150.869C199.857 150.326 200.844 149.781 201.831 149.237C202.325 148.965 202.818 148.693 203.326 148.413C206.768 146.515 210.208 144.615 213.647 142.712C223.318 137.366 233.003 132.052 242.725 126.801C247.166 124.4 251.596 121.98 256.006 119.522C256.541 119.224 257.077 118.926 257.629 118.619C260.411 117.069 263.193 115.519 265.975 113.968C268.49 112.566 271.008 111.168 273.526 109.772C274.528 109.216 275.529 108.658 276.529 108.1C294.724 97.9483 305.003 97.0053 323.584 107.169ZM295.337 122.318C294.771 122.622 294.206 122.926 293.623 123.239C293.02 123.575 292.418 123.912 291.797 124.258C291.151 124.608 290.506 124.958 289.841 125.319C287.754 126.455 285.674 127.602 283.593 128.751C282.216 129.501 280.838 130.251 279.459 131C276.598 132.554 273.741 134.114 270.886 135.678C267.857 137.337 264.821 138.984 261.78 140.622C254.098 144.761 246.449 148.942 238.867 153.262C231.757 157.314 224.568 161.203 217.343 165.045C210.391 168.746 203.513 172.557 196.675 176.465C192.554 178.811 188.407 181.101 184.222 183.331C183.74 183.588 183.258 183.845 182.761 184.11C180.419 185.357 178.074 186.598 175.725 187.833C171.214 190.222 166.757 192.681 162.384 195.312C161.974 195.559 161.974 195.559 159.896 196.807C157.897 198.222 156.679 199.292 155.468 201.407C155.468 204.141 155.468 204.141 156.25 206.876C158.778 209.185 161.47 210.827 164.486 212.424C165.318 212.867 166.149 213.31 167.005 213.766C167.887 214.232 168.769 214.697 169.678 215.176C171.532 216.163 173.385 217.153 175.238 218.143C175.689 218.383 175.689 218.383 177.972 219.6C181.116 221.285 184.239 223.005 187.354 224.747C193.332 228.086 199.325 231.401 205.322 234.708C205.804 234.973 206.284 235.238 206.78 235.512C207.022 235.644 207.022 235.644 208.246 236.319C209.232 236.864 210.219 237.408 211.206 237.951C211.7 238.224 212.193 238.496 212.701 238.776C216.143 240.674 219.583 242.574 223.022 244.476C224.935 245.533 226.847 246.59 228.76 247.647C229.231 247.908 229.702 248.168 230.188 248.436C237.375 252.406 244.589 256.324 251.818 260.218C257.097 263.07 262.32 266.01 267.529 268.985C276.908 274.336 286.472 279.319 296.093 284.219C296.594 284.535 297.094 284.851 297.61 285.176C300.663 286.326 303.266 285.277 306.152 284.032C306.922 283.627 307.691 283.223 308.484 282.806C309.348 282.356 310.212 281.905 311.102 281.441C312.024 280.951 312.946 280.462 313.867 279.972C314.826 279.467 315.786 278.962 316.746 278.458C323.564 274.869 330.317 271.168 337.032 267.389C341.375 264.955 345.738 262.553 350.098 260.147C350.341 260.012 350.341 260.012 351.574 259.332C358.16 255.696 364.764 252.095 371.387 248.526C378.168 244.871 384.882 241.112 391.575 237.301C397.204 234.107 402.887 231.022 408.593 227.969C415.275 224.394 421.919 220.762 428.515 217.032C429.229 216.629 429.942 216.226 430.676 215.811C432.696 214.664 434.707 213.505 436.718 212.344C437.443 211.937 438.168 211.529 438.915 211.108C439.619 210.704 440.324 210.299 441.049 209.882C441.684 209.521 442.318 209.161 442.972 208.789C444.531 207.657 444.531 207.657 445.947 204.873C446.124 201.63 445.911 200.697 443.75 198.282C439.008 194.908 433.733 192.282 428.614 189.542C426.925 188.633 425.238 187.723 423.55 186.813C422.727 186.369 421.904 185.926 421.056 185.469C418.013 183.82 414.985 182.146 411.963 180.459C405.867 177.061 399.763 173.677 393.653 170.303C393.167 170.035 392.681 169.767 392.181 169.491C384.733 165.38 377.262 161.314 369.777 157.271C365.335 154.869 360.905 152.449 356.494 149.991C355.947 149.686 355.4 149.381 354.836 149.067C353.646 148.404 352.457 147.741 351.267 147.078C343.565 142.791 335.85 138.53 328.121 134.294C326.522 133.416 324.924 132.535 323.326 131.654C320.647 130.176 317.961 128.71 315.271 127.251C314.245 126.692 313.222 126.131 312.2 125.566C310.776 124.779 309.346 124.005 307.913 123.233C307.1 122.789 306.287 122.345 305.449 121.887C301.776 120.387 298.815 120.41 295.337 122.318ZM138.281 227.969C136.64 231.121 136.524 233.82 136.525 237.34C136.524 237.88 136.522 238.422 136.52 238.979C136.515 240.787 136.522 242.595 136.529 244.404C136.529 245.703 136.527 247.002 136.525 248.301C136.521 251.833 136.527 255.364 136.535 258.894C136.542 262.608 136.54 266.323 136.539 270.037C136.54 276.29 136.547 282.545 136.558 288.8C136.57 295.979 136.575 303.158 136.574 310.338C136.573 318.028 136.579 325.718 136.586 333.408C136.588 335.596 136.588 337.785 136.589 339.973C136.591 348.994 136.623 358.012 136.718 367.032C136.722 367.305 136.721 367.305 136.735 368.687C136.77 372.111 136.836 375.533 136.922 378.956C136.932 379.779 136.943 380.601 136.954 381.448C137.132 386.846 137.132 386.846 138.982 389.356C140.813 390.597 142.631 391.746 144.571 392.81C144.96 393.026 144.96 393.026 146.929 394.116C147.765 394.573 148.601 395.029 149.463 395.498C151.246 396.483 153.028 397.468 154.81 398.453C155.709 398.948 156.608 399.444 157.535 399.955C160.65 401.681 163.746 403.441 166.839 405.207C175.2 409.977 183.655 414.557 192.149 419.084C198.822 422.642 205.444 426.279 212.044 429.969C216.389 432.391 220.743 434.794 225.098 437.198C225.583 437.466 226.069 437.734 226.57 438.011C233.241 441.693 239.927 445.344 246.631 448.966C252.097 451.919 257.556 454.886 262.989 457.901C263.553 458.213 264.118 458.525 264.699 458.846C267.373 460.331 270.02 461.846 272.635 463.434C272.881 463.581 272.881 463.581 274.124 464.326C275.434 465.114 276.736 465.917 278.036 466.721C280.971 468.038 282.756 468.301 285.937 467.813C288.764 465.677 289.741 464.517 290.336 460.985C290.357 459.824 290.357 458.662 290.339 457.502C290.346 456.86 290.352 456.219 290.358 455.557C290.374 453.408 290.361 451.26 290.349 449.111C290.354 447.569 290.361 446.028 290.37 444.487C290.388 440.301 290.381 436.116 290.368 431.93C290.358 427.552 290.368 423.173 290.374 418.795C290.381 411.442 290.372 404.089 290.353 396.736C290.332 388.233 290.339 379.73 290.36 371.226C290.378 363.928 290.38 356.63 290.37 349.331C290.364 344.971 290.363 340.611 290.376 336.251C290.387 332.152 290.379 328.053 290.357 323.955C290.352 322.449 290.354 320.944 290.362 319.439C290.372 317.386 290.359 315.334 290.339 313.28C290.349 312.683 290.357 312.087 290.366 311.472C290.309 308.368 289.969 307.028 287.972 304.598C286.121 303.116 284.355 301.873 282.285 300.723C281.583 300.33 280.882 299.937 280.159 299.532C279.407 299.119 278.655 298.707 277.881 298.282C277.089 297.841 276.299 297.401 275.484 296.947C269.096 293.401 262.668 289.928 256.235 286.466C250.895 283.585 245.604 280.63 240.332 277.628C233.023 273.466 225.643 269.454 218.229 265.481C212.364 262.337 206.533 259.14 200.723 255.896C187.04 248.258 173.305 240.712 159.509 233.28C157.05 231.954 154.599 230.616 152.161 229.251C151.686 228.987 151.21 228.723 150.72 228.451C149.538 227.794 148.359 227.13 147.18 226.465C143.559 224.837 141.274 225.686 138.281 227.969ZM451.465 227.872C450.985 228.118 450.505 228.363 450.011 228.616C445.086 231.164 440.248 233.867 435.413 236.579C430.442 239.365 425.45 242.113 420.459 244.864C418.498 245.945 416.536 247.026 414.575 248.108C414.082 248.38 413.589 248.652 413.08 248.933C409.638 250.83 406.198 252.73 402.759 254.633C400.846 255.69 398.934 256.747 397.022 257.803C396.55 258.064 396.079 258.324 395.593 258.592C389.171 262.14 382.729 265.65 376.27 269.131C370.271 272.365 364.319 275.669 358.398 279.044C351.604 282.916 344.743 286.647 337.842 290.323C313.509 303.295 313.509 303.295 311.718 306.876C310.715 315.294 310.817 323.797 310.811 332.26C310.808 333.68 310.804 335.099 310.8 336.518C310.789 340.338 310.785 344.158 310.781 347.979C310.779 350.368 310.775 352.758 310.772 355.147C310.761 362.633 310.754 370.118 310.751 377.604C310.747 386.23 310.733 394.857 310.711 403.483C310.694 410.169 310.686 416.853 310.686 423.538C310.685 427.525 310.68 431.512 310.666 435.499C310.653 439.241 310.651 442.983 310.658 446.724C310.659 448.098 310.655 449.47 310.647 450.843C310.638 452.716 310.643 454.588 310.65 456.462C310.644 457.005 310.638 457.548 310.632 458.108C310.675 462.38 311.858 464.828 314.843 467.813C320.9 468.687 324.833 466.192 329.981 463.223C330.813 462.758 331.646 462.291 332.504 461.812C334.185 460.869 335.863 459.922 337.538 458.969C340.024 457.555 342.523 456.166 345.026 454.784C346.688 453.866 348.346 452.942 350.003 452.017C354.975 449.246 359.958 446.492 364.942 443.741C365.427 443.473 365.913 443.205 366.413 442.928C373.861 438.818 381.332 434.751 388.817 430.708C393.814 428.007 398.792 425.273 403.753 422.506C408.761 419.713 413.782 416.942 418.805 414.174C427.011 409.651 435.214 405.121 443.408 400.576C444.247 400.112 445.087 399.648 445.952 399.169C448.347 397.84 450.737 396.501 453.125 395.157C453.994 394.672 454.863 394.187 455.758 393.687C456.182 393.446 456.182 393.446 458.322 392.23C459.086 391.799 459.85 391.367 460.638 390.923C462.5 389.688 462.5 389.688 464.062 387.344C464.309 385.638 464.309 385.638 464.38 383.601C464.395 383.211 464.395 383.211 464.47 381.233C464.482 380.8 464.482 380.8 464.541 378.607C464.556 378.144 464.556 378.144 464.629 375.8C464.993 362.914 464.987 350.022 465 337.132C465.003 334.937 465.006 332.74 465.009 330.545C465.02 323.649 465.027 316.753 465.03 309.857C465.034 301.938 465.048 294.019 465.07 286.101C465.087 279.937 465.095 273.773 465.096 267.61C465.096 263.944 465.101 260.278 465.115 256.612C465.129 253.18 465.13 249.749 465.123 246.318C465.122 245.061 465.126 243.805 465.134 242.548C465.143 240.831 465.139 239.116 465.131 237.399C465.132 236.44 465.133 235.48 465.134 234.492C464.811 231.575 464.011 229.689 462.5 227.188C458.604 224.423 455.372 225.868 451.465 227.872Z" fill="black"/>
<path d="M180.737 325.078C188.556 330.005 192.815 336.514 195.807 345.158C196.255 347.811 196.139 350.418 196.094 353.105C192.634 351.399 189.186 349.671 185.742 347.933C184.197 347.158 182.648 346.39 181.097 345.626C178.423 344.307 175.759 342.97 173.096 341.631C172.221 341.204 171.346 340.777 170.444 340.337C169.628 339.923 168.812 339.509 167.972 339.083C167.237 338.717 166.503 338.352 165.746 337.976C164.062 336.699 164.062 336.699 163.372 334.771C163.235 331.79 164.21 329.919 165.625 327.324C170.199 322.979 175.048 322.347 180.737 325.078Z" fill="black"/>
<path d="M235.352 356.641C241.746 361.993 246.477 368.749 247.656 377.197C247.686 379.02 247.692 380.844 247.656 382.666C239.945 378.863 232.29 374.956 224.658 370.996C223.783 370.543 222.908 370.091 222.006 369.624C221.191 369.199 220.375 368.775 219.534 368.338C218.8 367.956 218.065 367.575 217.309 367.181C215.625 366.26 215.625 366.26 214.844 365.478C214.963 361.972 215.165 359.417 217.334 356.592C222.802 351.488 229.503 352.462 235.352 356.641Z" fill="black"/>
<path d="M422.516 272.904C430.352 276.213 434.842 283.431 436.393 294.144C438.025 320.492 433.78 350.377 417.944 380.435C409.7 394.991 398.68 407.26 386.68 414.471C384.966 415.514 383.334 416.419 381.701 417.231C380.885 417.777 380.069 418.229 379.252 418.682C369.457 424.112 361.784 424.538 354.682 420.635C344.152 413.686 342.682 399.287 343.009 382.213C343.58 369.297 346.029 355.62 350.682 341.654C351.09 340.401 351.498 339.149 351.906 337.896C358.6 318.786 369.375 301.987 383.334 288.089C396.884 276.192 410.843 270.414 422.516 272.904Z" fill="#FBFBFB"/>
<path d="M422.516 272.904C430.352 276.213 434.842 283.431 436.393 294.144C438.025 320.492 433.78 350.377 417.944 380.435C409.7 394.991 398.68 407.26 386.68 414.471C384.966 415.514 383.334 416.419 381.701 417.231C380.885 417.777 380.069 418.229 379.252 418.682C369.457 424.112 361.784 424.538 354.682 420.635C344.152 413.686 342.682 399.287 343.009 382.213C343.58 369.297 346.029 355.62 350.682 341.654C351.09 340.401 351.498 339.149 351.906 337.896C358.6 318.786 369.375 301.987 383.334 288.089C396.884 276.192 410.843 270.414 422.516 272.904ZM367.824 317.219C363.09 326.843 359.171 336.202 356.396 345.953C356.151 346.742 356.151 346.742 355.09 350.504C350.192 373.098 348.886 394.822 357.212 408.966C361.539 413.754 367.824 414.843 375.171 413.011C388.313 406.939 398.598 398.718 408.802 383.356C422.026 361.84 427.658 336.505 428.393 315.938C428.638 302.176 428.475 290.6 420.067 284.528C411.741 279.996 404.557 282.578 393.292 288.916C383.415 294.951 374.763 305.44 367.824 317.219Z" fill="#070707"/>
<path d="M367.824 336.819C371.579 334.737 375.334 332.656 379.252 330.484C379.987 331.197 380.64 331.862 381.375 332.668C387.905 339.221 394.517 345.636 401.292 351.866C401.537 340.624 401.863 329.337 402.108 317.815C404.802 316.322 407.496 314.828 410.271 313.29C410.271 329.903 410.271 346.516 410.271 363.689C407.333 365.318 404.312 366.992 401.292 368.666C400.639 368.001 399.904 367.289 399.251 366.624C391.905 359.216 384.395 351.993 376.803 344.908C376.558 357.363 376.232 369.864 375.987 382.693C373.293 384.186 370.6 385.679 367.824 387.217C367.824 370.605 367.824 353.992 367.824 336.819Z" fill="#020202"/>
<mask id="path-8-inside-1_5_17" fill="white">
<path fill-rule="evenodd" clip-rule="evenodd" d="M244.926 208.677L226.386 198.4L289.75 186.009L279.913 201.761L244.926 208.677ZM295.183 184.481C295.447 184.056 295.25 183.584 294.678 183.267L294.674 183.265C294.096 182.946 293.242 182.839 292.477 182.989L221.814 196.808C221.13 196.942 220.618 197.26 220.459 197.654C220.298 198.045 220.514 198.456 221.027 198.741L242.887 210.857C243.466 211.178 244.324 211.285 245.094 211.134L282.296 203.781C282.898 203.661 283.37 203.398 283.577 203.062L295.183 184.481ZM300.153 239.29L281.733 229.08L314.042 178.409C314.314 177.984 314.119 177.508 313.541 177.188L301.489 170.508L316.434 162.238L340.056 175.333L307.613 225.927C307.34 226.352 307.534 226.828 308.112 227.149L315.085 231.014L300.153 239.29ZM319.567 230.188L312.046 226.018L344.489 175.424C344.761 174.999 344.568 174.523 343.988 174.202L317.925 159.754C317.1 159.297 315.762 159.296 314.937 159.752L297.003 169.674C296.606 169.895 296.382 170.191 296.384 170.503C296.383 170.814 296.607 171.112 297.005 171.332L309.611 178.32L277.304 228.991C277.032 229.417 277.225 229.891 277.802 230.211L298.664 241.775C299.491 242.234 300.829 242.234 301.653 241.777L319.571 231.845C320.395 231.388 320.395 230.647 319.567 230.188Z"/>
</mask>
<path fill-rule="evenodd" clip-rule="evenodd" d="M244.926 208.677L226.386 198.4L289.75 186.009L279.913 201.761L244.926 208.677ZM295.183 184.481C295.447 184.056 295.25 183.584 294.678 183.267L294.674 183.265C294.096 182.946 293.242 182.839 292.477 182.989L221.814 196.808C221.13 196.942 220.618 197.26 220.459 197.654C220.298 198.045 220.514 198.456 221.027 198.741L242.887 210.857C243.466 211.178 244.324 211.285 245.094 211.134L282.296 203.781C282.898 203.661 283.37 203.398 283.577 203.062L295.183 184.481ZM300.153 239.29L281.733 229.08L314.042 178.409C314.314 177.984 314.119 177.508 313.541 177.188L301.489 170.508L316.434 162.238L340.056 175.333L307.613 225.927C307.34 226.352 307.534 226.828 308.112 227.149L315.085 231.014L300.153 239.29ZM319.567 230.188L312.046 226.018L344.489 175.424C344.761 174.999 344.568 174.523 343.988 174.202L317.925 159.754C317.1 159.297 315.762 159.296 314.937 159.752L297.003 169.674C296.606 169.895 296.382 170.191 296.384 170.503C296.383 170.814 296.607 171.112 297.005 171.332L309.611 178.32L277.304 228.991C277.032 229.417 277.225 229.891 277.802 230.211L298.664 241.775C299.491 242.234 300.829 242.234 301.653 241.777L319.571 231.845C320.395 231.388 320.395 230.647 319.567 230.188Z" fill="white"/>
<path d="M244.926 208.677L231.26 216.252L239.903 221.043L251.417 218.768L244.926 208.677ZM226.386 198.4L219.956 188.297L191.032 193.954L212.72 205.975L226.386 198.4ZM289.75 186.009L308.013 189.513L321.126 168.513L283.32 175.907L289.75 186.009ZM279.913 201.761L286.405 211.852L295.143 210.125L298.177 205.265L279.913 201.761ZM295.183 184.481L313.446 187.985L313.452 187.975L313.459 187.965L295.183 184.481ZM294.674 183.265L308.34 175.69L308.322 175.68L308.304 175.67L294.674 183.265ZM292.477 182.989L298.907 193.092L298.921 193.089L298.934 193.086L292.477 182.989ZM221.814 196.808L228.242 206.911L228.244 206.91L221.814 196.808ZM220.459 197.654L239.303 200.032L239.31 200.015L239.317 199.997L220.459 197.654ZM245.094 211.134L251.548 221.232L251.567 221.228L251.585 221.224L245.094 211.134ZM282.296 203.781L288.787 213.871L288.805 213.868L288.823 213.864L282.296 203.781ZM283.577 203.062L265.314 199.557L265.303 199.576L265.291 199.594L283.577 203.062ZM300.153 239.29L286.487 246.865L300.153 254.44L313.819 246.865L300.153 239.29ZM281.733 229.08L263.511 225.51L259.45 231.878L268.067 236.655L281.733 229.08ZM314.042 178.409L295.833 174.819L295.826 174.829L295.82 174.839L314.042 178.409ZM301.489 170.508L287.835 162.926L274.145 170.501L287.823 178.083L301.489 170.508ZM316.434 162.238L330.1 154.663L316.446 147.095L302.78 154.656L316.434 162.238ZM340.056 175.333L358.267 178.92L362.356 172.543L353.722 167.757L340.056 175.333ZM307.613 225.927L325.822 229.517L325.823 229.515L307.613 225.927ZM315.085 231.014L328.751 238.589L342.416 231.014L328.751 223.438L315.085 231.014ZM312.046 226.018L293.835 222.43L289.746 228.808L298.38 233.594L312.046 226.018ZM344.489 175.424L326.28 171.834L326.278 171.836L344.489 175.424ZM314.937 159.752L301.296 152.163L301.283 152.17L314.937 159.752ZM297.003 169.674L283.349 162.092L283.343 162.096L283.337 162.099L297.003 169.674ZM296.384 170.503L315.711 170.52L315.711 170.491L315.711 170.463L296.384 170.503ZM309.611 178.32L327.833 181.89L331.893 175.521L323.277 170.745L309.611 178.32ZM277.304 228.991L259.082 225.422L259.08 225.425L277.304 228.991ZM244.926 208.677L258.592 201.102L240.052 190.825L226.386 198.4L212.72 205.975L231.26 216.252L244.926 208.677ZM226.386 198.4L232.816 208.503L296.179 196.112L289.75 186.009L283.32 175.907L219.956 188.297L226.386 198.4ZM289.75 186.009L271.486 182.505L261.65 198.257L279.913 201.761L298.177 205.265L308.013 189.513L289.75 186.009ZM279.913 201.761L273.422 191.671L238.435 198.586L244.926 208.677L251.417 218.768L286.405 211.852L279.913 201.761ZM295.183 184.481L313.459 187.965C316.123 183.672 314.144 178.907 308.344 175.692L294.678 183.267L281.012 190.842C276.356 188.261 274.77 184.44 276.908 180.996L295.183 184.481ZM294.678 183.267L308.344 175.692L308.34 175.69L294.674 183.265L281.008 190.84L281.012 190.842L294.678 183.267ZM294.674 183.265L308.304 175.67C302.494 172.466 293.842 171.355 286.021 172.892L292.477 182.989L298.934 193.086C292.642 194.322 285.698 193.426 281.043 190.859L294.674 183.265ZM292.477 182.989L286.047 172.886L215.384 186.705L221.814 196.808L228.244 206.91L298.907 193.092L292.477 182.989ZM221.814 196.808L215.386 186.705C208.438 188.063 203.219 191.308 201.6 195.311L220.459 197.654L239.317 199.997C238.017 203.212 233.821 205.82 228.242 206.911L221.814 196.808ZM220.459 197.654L201.614 195.275C199.966 199.288 202.191 203.45 207.361 206.316L221.027 198.741L234.693 191.165C238.837 193.462 240.63 196.802 239.303 200.032L220.459 197.654ZM221.027 198.741L207.361 206.316L229.221 218.433L242.887 210.857L256.553 203.282L234.693 191.165L221.027 198.741ZM242.887 210.857L229.221 218.433C235.083 221.682 243.774 222.759 251.548 221.232L245.094 211.134L238.639 201.036C244.874 199.812 251.849 200.675 256.553 203.282L242.887 210.857ZM245.094 211.134L251.585 221.224L288.787 213.871L282.296 203.781L275.805 193.69L238.603 201.043L245.094 211.134ZM282.296 203.781L288.823 213.864C294.893 212.657 299.732 209.982 301.863 206.531L283.577 203.062L265.291 199.594C267.008 196.814 270.904 194.665 275.769 193.697L282.296 203.781ZM283.577 203.062L301.84 206.567L313.446 187.985L295.183 184.481L276.92 180.976L265.314 199.557L283.577 203.062ZM300.153 239.29L313.819 231.715L295.399 221.504L281.733 229.08L268.067 236.655L286.487 246.865L300.153 239.29ZM281.733 229.08L299.955 232.65L332.263 181.979L314.042 178.409L295.82 174.839L263.511 225.51L281.733 229.08ZM314.042 178.409L332.25 181.999C335.04 177.652 333.024 172.837 327.207 169.613L313.541 177.188L299.875 184.763C295.214 182.18 293.588 178.316 295.833 174.819L314.042 178.409ZM313.541 177.188L327.207 169.613L315.155 162.932L301.489 170.508L287.823 178.083L299.875 184.763L313.541 177.188ZM301.489 170.508L315.143 178.089L330.087 169.82L316.434 162.238L302.78 154.656L287.835 162.926L301.489 170.508ZM316.434 162.238L302.768 169.814L326.39 182.908L340.056 175.333L353.722 167.757L330.1 154.663L316.434 162.238ZM340.056 175.333L321.846 171.745L289.403 222.339L307.613 225.927L325.823 229.515L358.267 178.92L340.056 175.333ZM307.613 225.927L289.404 222.337C286.626 226.666 288.605 231.486 294.446 234.724L308.112 227.149L321.778 219.573C326.464 222.171 328.055 226.038 325.822 229.517L307.613 225.927ZM308.112 227.149L294.446 234.724L301.419 238.589L315.085 231.014L328.751 223.438L321.778 219.573L308.112 227.149ZM315.085 231.014L301.419 223.438L286.487 231.715L300.153 239.29L313.819 246.865L328.751 238.589L315.085 231.014ZM319.567 230.188L333.233 222.613L325.711 218.443L312.046 226.018L298.38 233.594L305.901 237.763L319.567 230.188ZM312.046 226.018L330.256 229.606L362.699 179.012L344.489 175.424L326.278 171.836L293.835 222.43L312.046 226.018ZM344.489 175.424L362.698 179.014C365.479 174.679 363.489 169.861 357.654 166.626L343.988 174.202L330.322 181.777C325.646 179.184 324.043 175.319 326.28 171.834L344.489 175.424ZM343.988 174.202L357.654 166.626L331.591 152.179L317.925 159.754L304.259 167.33L330.322 181.777L343.988 174.202ZM317.925 159.754L331.591 152.179C323.253 147.557 309.697 147.523 301.296 152.163L314.937 159.752L328.578 167.341C321.828 171.069 310.948 171.037 304.259 167.33L317.925 159.754ZM314.937 159.752L301.283 152.17L283.349 162.092L297.003 169.674L310.656 177.256L328.59 167.334L314.937 159.752ZM297.003 169.674L283.337 162.099C279.345 164.312 277.036 167.34 277.058 170.544L296.384 170.503L315.711 170.463C315.728 173.042 313.867 175.477 310.669 177.25L297.003 169.674ZM296.384 170.503L277.058 170.487C277.049 173.67 279.341 176.692 283.339 178.908L297.005 171.332L310.671 163.757C313.872 165.532 315.718 167.958 315.711 170.52L296.384 170.503ZM297.005 171.332L283.339 178.908L295.945 185.895L309.611 178.32L323.277 170.745L310.671 163.757L297.005 171.332ZM309.611 178.32L291.389 174.75L259.082 225.422L277.304 228.991L295.526 232.561L327.833 181.89L309.611 178.32ZM277.304 228.991L259.08 225.425C256.336 229.732 258.283 234.542 264.137 237.787L277.802 230.211L291.468 222.636C296.167 225.241 297.729 229.102 295.528 232.558L277.304 228.991ZM277.802 230.211L264.137 237.787L284.998 249.35L298.664 241.775L312.33 234.2L291.468 222.636L277.802 230.211ZM298.664 241.775L284.998 249.35C293.352 253.981 306.927 254.004 315.319 249.352L301.653 241.777L287.987 234.202C294.732 230.463 305.631 230.487 312.33 234.2L298.664 241.775ZM301.653 241.777L315.319 249.352L333.237 239.42L319.571 231.845L305.905 224.27L287.987 234.202L301.653 241.777ZM319.571 231.845L333.237 239.42C341.63 234.768 341.587 227.243 333.233 222.613L319.567 230.188L305.901 237.763C299.203 234.05 299.161 228.008 305.905 224.27L319.571 231.845Z" fill="white" mask="url(#path-8-inside-1_5_17)"/>
</g>
</g>
<path d="M634.382 319V257.064H611.198V239.48H679.63V257.064H656.446V319H634.382ZM707.718 320.344C701.222 320.344 695.547 319.037 690.694 316.424C685.84 313.811 682.07 310.152 679.382 305.448C676.694 300.669 675.35 295.107 675.35 288.76C675.35 282.413 676.694 276.888 679.382 272.184C682.07 267.48 685.84 263.821 690.694 261.208C695.547 258.52 701.222 257.176 707.718 257.176C714.214 257.176 719.814 258.557 724.518 261.32C729.296 264.008 732.955 267.853 735.494 272.856C738.032 277.859 739.302 283.757 739.302 290.552V294.36H697.75C697.899 298.019 698.907 300.744 700.774 302.536C702.715 304.253 705.179 305.112 708.166 305.112C710.331 305.112 712.16 304.701 713.654 303.88C715.222 303.059 716.342 301.603 717.014 299.512L738.518 300.632C736.875 307.128 733.291 312.056 727.766 315.416C722.24 318.701 715.558 320.344 707.718 320.344ZM697.75 282.712H717.574C717.499 279.203 716.566 276.552 714.774 274.76C712.982 272.893 710.63 271.96 707.718 271.96C704.955 271.96 702.64 272.931 700.774 274.872C698.982 276.813 697.974 279.427 697.75 282.712ZM748.038 319V258.52H769.094L769.766 277.56L768.198 277.336C769.318 270.616 771.11 265.8 773.574 262.888C776.038 259.976 779.51 258.52 783.99 258.52H789.142V275.768H783.766C780.555 275.768 777.904 276.104 775.814 276.776C773.798 277.373 772.267 278.456 771.222 280.024C770.251 281.592 769.766 283.795 769.766 286.632V319H748.038ZM796.71 319V258.52H817.766L818.438 277.56L816.87 277.336C817.99 270.616 819.782 265.8 822.246 262.888C824.71 259.976 828.182 258.52 832.662 258.52H837.814V275.768H832.438C829.227 275.768 826.576 276.104 824.486 276.776C822.47 277.373 820.939 278.456 819.894 280.024C818.923 281.592 818.438 283.795 818.438 286.632V319H796.71ZM863.44 320.344C857.093 320.344 851.866 318.888 847.76 315.976C843.653 313.064 841.6 308.995 841.6 303.768C841.6 298.392 843.354 294.285 846.864 291.448C850.448 288.536 855.525 286.371 862.096 284.952L880.24 281.144C880.24 278.008 879.568 275.619 878.224 273.976C876.88 272.333 875.013 271.512 872.624 271.512C870.085 271.512 868.106 272.147 866.688 273.416C865.344 274.611 864.485 276.403 864.112 278.792L842.608 278.12C843.802 270.803 846.976 265.501 852.128 262.216C857.28 258.856 864.112 257.176 872.624 257.176C882.48 257.176 889.834 259.304 894.688 263.56C899.541 267.816 901.968 274.275 901.968 282.936V300.632C901.968 302.573 902.266 303.843 902.864 304.44C903.536 305.037 904.432 305.336 905.552 305.336H906.784V319C906.112 319.224 905.029 319.411 903.536 319.56C902.042 319.784 900.586 319.896 899.168 319.896C897.002 319.896 894.762 319.523 892.448 318.776C890.133 318.029 888.192 316.611 886.624 314.52C885.056 312.355 884.272 309.219 884.272 305.112L885.84 306.904C885.018 309.667 883.674 312.056 881.808 314.072C879.941 316.088 877.477 317.656 874.416 318.776C871.429 319.821 867.77 320.344 863.44 320.344ZM869.488 306.68C871.504 306.68 873.296 306.269 874.864 305.448C876.506 304.627 877.813 303.395 878.784 301.752C879.754 300.035 880.24 297.869 880.24 295.256V293.24L870.384 295.704C868.517 296.152 866.949 296.899 865.68 297.944C864.485 298.915 863.888 300.184 863.888 301.752C863.888 303.32 864.336 304.552 865.232 305.448C866.128 306.269 867.546 306.68 869.488 306.68ZM913.866 319V239.48H936.042L962.586 284.28V239.48H984.538V319H962.362L935.818 276.44V319H913.866ZM1026.33 320.344C1019.83 320.344 1014.16 319.037 1009.3 316.424C1004.45 313.811 1000.68 310.152 997.991 305.448C995.303 300.669 993.959 295.107 993.959 288.76C993.959 282.413 995.303 276.888 997.991 272.184C1000.68 267.48 1004.45 263.821 1009.3 261.208C1014.16 258.52 1019.83 257.176 1026.33 257.176C1032.82 257.176 1038.42 258.557 1043.13 261.32C1047.91 264.008 1051.56 267.853 1054.1 272.856C1056.64 277.859 1057.91 283.757 1057.91 290.552V294.36H1016.36C1016.51 298.019 1017.52 300.744 1019.38 302.536C1021.32 304.253 1023.79 305.112 1026.78 305.112C1028.94 305.112 1030.77 304.701 1032.26 303.88C1033.83 303.059 1034.95 301.603 1035.62 299.512L1057.13 300.632C1055.48 307.128 1051.9 312.056 1046.38 315.416C1040.85 318.701 1034.17 320.344 1026.33 320.344ZM1016.36 282.712H1036.18C1036.11 279.203 1035.18 276.552 1033.38 274.76C1031.59 272.893 1029.24 271.96 1026.33 271.96C1023.56 271.96 1021.25 272.931 1019.38 274.872C1017.59 276.813 1016.58 279.427 1016.36 282.712ZM1058.42 319L1079.47 288.536L1058.64 258.52H1081.04L1092.02 275.768L1102.77 258.52H1125.62L1104.78 288.536L1125.95 319H1103.55L1092.46 301.08L1081.26 319H1058.42ZM1159.49 319C1152.69 319 1147.73 317.432 1144.59 314.296C1141.45 311.085 1139.89 306.008 1139.89 299.064V244.296H1161.61V295.928C1161.61 298.915 1162.21 300.968 1163.41 302.088C1164.67 303.133 1166.58 303.656 1169.12 303.656H1177.41V319H1159.49ZM1129.58 273.864V258.52H1177.41V273.864H1129.58Z" fill="black"/>
<path d="M623.085 384V361.28H626.189L638.381 381.856V361.28H640.557V384H637.325L625.261 363.68V384H623.085ZM652.354 384.384C650.733 384.384 649.357 384.011 648.226 383.264C647.096 382.496 646.221 381.451 645.602 380.128C645.005 378.784 644.706 377.248 644.706 375.52C644.706 373.792 645.005 372.267 645.602 370.944C646.2 369.6 647.053 368.555 648.162 367.808C649.293 367.04 650.648 366.656 652.226 366.656C653.741 366.656 655.053 367.019 656.162 367.744C657.272 368.469 658.114 369.493 658.69 370.816C659.288 372.139 659.586 373.685 659.586 375.456V376.128H646.914C647 378.133 647.522 379.68 648.482 380.768C649.442 381.835 650.733 382.368 652.354 382.368C653.592 382.368 654.605 382.069 655.394 381.472C656.184 380.875 656.728 380.085 657.026 379.104L659.298 379.264C658.872 380.757 658.05 381.984 656.834 382.944C655.618 383.904 654.125 384.384 652.354 384.384ZM646.914 374.24H657.282C657.176 372.427 656.674 371.051 655.778 370.112C654.882 369.152 653.698 368.672 652.226 368.672C650.754 368.672 649.549 369.152 648.61 370.112C647.672 371.072 647.106 372.448 646.914 374.24ZM661.083 384L667.355 375.36L661.371 367.04H663.835L668.667 373.92L673.435 367.04H675.963L670.011 375.392L676.219 384H673.755L668.699 376.768L663.579 384H661.083ZM684.56 384C683.173 384 682.149 383.68 681.488 383.04C680.826 382.379 680.496 381.376 680.496 380.032V363.072H682.608V379.968C682.608 380.757 682.778 381.312 683.12 381.632C683.482 381.952 684.026 382.112 684.752 382.112H686.992V384H684.56ZM677.84 368.928V367.04H686.992V368.928H677.84ZM690.269 384V380.896H693.309V384H690.269ZM694.918 388.8V386.912H696.134C696.881 386.912 697.435 386.752 697.798 386.432C698.161 386.112 698.342 385.515 698.342 384.64V367.04H700.454V384.768C700.454 386.24 700.134 387.275 699.494 387.872C698.854 388.491 697.809 388.8 696.358 388.8H694.918ZM698.278 364.224V361.376H700.518V364.224H698.278ZM711.406 384.384C709.934 384.384 708.675 384.149 707.63 383.68C706.606 383.189 705.806 382.517 705.23 381.664C704.654 380.811 704.323 379.851 704.238 378.784L706.446 378.624C706.574 379.755 707.043 380.661 707.854 381.344C708.686 382.027 709.87 382.368 711.406 382.368C712.75 382.368 713.795 382.144 714.542 381.696C715.288 381.248 715.662 380.555 715.662 379.616C715.662 379.104 715.544 378.677 715.31 378.336C715.096 377.973 714.648 377.664 713.966 377.408C713.283 377.131 712.259 376.875 710.894 376.64C709.294 376.341 708.046 375.989 707.15 375.584C706.254 375.157 705.624 374.635 705.262 374.016C704.899 373.376 704.718 372.619 704.718 371.744C704.718 370.229 705.262 369.003 706.35 368.064C707.438 367.125 708.952 366.656 710.894 366.656C712.216 366.656 713.336 366.901 714.254 367.392C715.192 367.883 715.928 368.533 716.462 369.344C716.995 370.133 717.347 371.008 717.518 371.968L715.31 372.16C715.182 371.499 714.936 370.912 714.574 370.4C714.211 369.867 713.72 369.451 713.102 369.152C712.483 368.832 711.736 368.672 710.862 368.672C709.582 368.672 708.6 368.949 707.918 369.504C707.256 370.037 706.926 370.752 706.926 371.648C706.926 372.267 707.064 372.779 707.342 373.184C707.619 373.568 708.078 373.888 708.718 374.144C709.358 374.379 710.243 374.592 711.374 374.784C713.059 375.061 714.371 375.413 715.31 375.84C716.27 376.245 716.942 376.757 717.326 377.376C717.71 377.973 717.902 378.709 717.902 379.584C717.902 380.608 717.624 381.483 717.07 382.208C716.515 382.912 715.747 383.456 714.766 383.84C713.806 384.203 712.686 384.384 711.406 384.384ZM735.295 382.304V367.008H737.279V382.304H735.295ZM728.639 375.648V373.696H743.935V375.648H728.639ZM764.883 384.512C762.771 384.512 760.947 384.043 759.411 383.104C757.896 382.144 756.734 380.779 755.923 379.008C755.112 377.237 754.707 375.125 754.707 372.672C754.707 370.219 755.112 368.107 755.923 366.336C756.734 364.544 757.896 363.168 759.411 362.208C760.947 361.248 762.771 360.768 764.883 360.768C767.016 360.768 768.84 361.248 770.355 362.208C771.87 363.168 773.032 364.544 773.843 366.336C774.675 368.107 775.091 370.219 775.091 372.672C775.091 375.125 774.675 377.237 773.843 379.008C773.032 380.779 771.87 382.144 770.355 383.104C768.84 384.043 767.016 384.512 764.883 384.512ZM764.883 382.368C766.547 382.368 767.966 381.984 769.139 381.216C770.312 380.448 771.219 379.339 771.859 377.888C772.499 376.437 772.819 374.699 772.819 372.672C772.819 370.645 772.499 368.907 771.859 367.456C771.219 365.984 770.312 364.864 769.139 364.096C767.966 363.307 766.547 362.912 764.883 362.912C763.24 362.912 761.822 363.307 760.627 364.096C759.454 364.864 758.547 365.984 757.907 367.456C757.288 368.907 756.979 370.645 756.979 372.672C756.979 374.699 757.288 376.437 757.907 377.888C758.547 379.339 759.454 380.448 760.627 381.216C761.822 381.984 763.24 382.368 764.883 382.368ZM779.233 388.8V367.04H781.153L781.217 371.328L780.865 371.168C781.292 369.696 782.028 368.576 783.073 367.808C784.119 367.04 785.335 366.656 786.721 366.656C788.321 366.656 789.644 367.061 790.689 367.872C791.756 368.661 792.556 369.728 793.089 371.072C793.644 372.395 793.921 373.877 793.921 375.52C793.921 377.163 793.655 378.656 793.121 380C792.588 381.323 791.788 382.389 790.721 383.2C789.655 383.989 788.321 384.384 786.721 384.384C785.783 384.384 784.908 384.203 784.097 383.84C783.308 383.456 782.636 382.944 782.081 382.304C781.548 381.664 781.185 380.939 780.993 380.128L781.345 379.712V388.8H779.233ZM786.561 382.368C788.14 382.368 789.388 381.76 790.305 380.544C791.223 379.328 791.681 377.653 791.681 375.52C791.681 373.387 791.223 371.712 790.305 370.496C789.388 369.28 788.129 368.672 786.529 368.672C785.484 368.672 784.567 368.949 783.777 369.504C783.009 370.037 782.412 370.816 781.985 371.84C781.559 372.864 781.345 374.091 781.345 375.52C781.345 376.949 781.559 378.176 781.985 379.2C782.412 380.224 783.02 381.013 783.809 381.568C784.599 382.101 785.516 382.368 786.561 382.368ZM804.198 384.384C802.577 384.384 801.201 384.011 800.07 383.264C798.939 382.496 798.065 381.451 797.446 380.128C796.849 378.784 796.55 377.248 796.55 375.52C796.55 373.792 796.849 372.267 797.446 370.944C798.043 369.6 798.897 368.555 800.006 367.808C801.137 367.04 802.491 366.656 804.07 366.656C805.585 366.656 806.897 367.019 808.006 367.744C809.115 368.469 809.958 369.493 810.534 370.816C811.131 372.139 811.43 373.685 811.43 375.456V376.128H798.758C798.843 378.133 799.366 379.68 800.326 380.768C801.286 381.835 802.577 382.368 804.198 382.368C805.435 382.368 806.449 382.069 807.238 381.472C808.027 380.875 808.571 380.085 808.87 379.104L811.142 379.264C810.715 380.757 809.894 381.984 808.678 382.944C807.462 383.904 805.969 384.384 804.198 384.384ZM798.758 374.24H809.126C809.019 372.427 808.518 371.051 807.622 370.112C806.726 369.152 805.542 368.672 804.07 368.672C802.598 368.672 801.393 369.152 800.454 370.112C799.515 371.072 798.95 372.448 798.758 374.24ZM815.202 384V367.04H817.122L817.218 371.488L816.962 371.296C817.133 370.251 817.485 369.387 818.018 368.704C818.573 368.021 819.245 367.509 820.034 367.168C820.823 366.827 821.677 366.656 822.594 366.656C823.895 366.656 824.962 366.944 825.794 367.52C826.647 368.096 827.277 368.875 827.682 369.856C828.087 370.816 828.29 371.893 828.29 373.088V384H826.178V373.856C826.178 372.747 826.039 371.797 825.762 371.008C825.506 370.219 825.079 369.611 824.482 369.184C823.885 368.757 823.106 368.544 822.146 368.544C820.695 368.544 819.522 369.013 818.626 369.952C817.751 370.891 817.314 372.192 817.314 373.856V384H815.202ZM833.585 384V361.28H836.689L848.881 381.856V361.28H851.057V384H847.825L835.761 363.68V384H833.585ZM862.854 384.384C861.233 384.384 859.857 384.011 858.726 383.264C857.596 382.496 856.721 381.451 856.102 380.128C855.505 378.784 855.206 377.248 855.206 375.52C855.206 373.792 855.505 372.267 856.102 370.944C856.7 369.6 857.553 368.555 858.662 367.808C859.793 367.04 861.148 366.656 862.726 366.656C864.241 366.656 865.553 367.019 866.662 367.744C867.772 368.469 868.614 369.493 869.19 370.816C869.788 372.139 870.086 373.685 870.086 375.456V376.128H857.414C857.5 378.133 858.022 379.68 858.982 380.768C859.942 381.835 861.233 382.368 862.854 382.368C864.092 382.368 865.105 382.069 865.894 381.472C866.684 380.875 867.228 380.085 867.526 379.104L869.798 379.264C869.372 380.757 868.55 381.984 867.334 382.944C866.118 383.904 864.625 384.384 862.854 384.384ZM857.414 374.24H867.782C867.676 372.427 867.174 371.051 866.278 370.112C865.382 369.152 864.198 368.672 862.726 368.672C861.254 368.672 860.049 369.152 859.11 370.112C858.172 371.072 857.606 372.448 857.414 374.24ZM871.583 384L877.855 375.36L871.871 367.04H874.335L879.167 373.92L883.935 367.04H886.463L880.511 375.392L886.719 384H884.255L879.199 376.768L874.079 384H871.583ZM895.06 384C893.673 384 892.649 383.68 891.988 383.04C891.326 382.379 890.996 381.376 890.996 380.032V363.072H893.108V379.968C893.108 380.757 893.278 381.312 893.62 381.632C893.982 381.952 894.526 382.112 895.252 382.112H897.492V384H895.06ZM888.34 368.928V367.04H897.492V368.928H888.34ZM914.577 382.304V367.008H916.561V382.304H914.577ZM907.921 375.648V373.696H923.217V375.648H907.921ZM940.196 384V363.392H932.9V361.28H949.668V363.392H942.372V384H940.196ZM956.604 384.384C954.983 384.384 953.607 384.011 952.476 383.264C951.346 382.496 950.471 381.451 949.852 380.128C949.255 378.784 948.956 377.248 948.956 375.52C948.956 373.792 949.255 372.267 949.852 370.944C950.45 369.6 951.303 368.555 952.412 367.808C953.543 367.04 954.898 366.656 956.476 366.656C957.991 366.656 959.303 367.019 960.412 367.744C961.522 368.469 962.364 369.493 962.94 370.816C963.538 372.139 963.836 373.685 963.836 375.456V376.128H951.164C951.25 378.133 951.772 379.68 952.732 380.768C953.692 381.835 954.983 382.368 956.604 382.368C957.842 382.368 958.855 382.069 959.644 381.472C960.434 380.875 960.978 380.085 961.276 379.104L963.548 379.264C963.122 380.757 962.3 381.984 961.084 382.944C959.868 383.904 958.375 384.384 956.604 384.384ZM951.164 374.24H961.532C961.426 372.427 960.924 371.051 960.028 370.112C959.132 369.152 957.948 368.672 956.476 368.672C955.004 368.672 953.799 369.152 952.86 370.112C951.922 371.072 951.356 372.448 951.164 374.24ZM967.608 384V367.04H969.432L969.56 371.68L969.272 371.52C969.55 370.005 970.051 368.885 970.776 368.16C971.502 367.413 972.504 367.04 973.784 367.04H975.256V369.088H973.72C972.867 369.088 972.142 369.28 971.544 369.664C970.947 370.027 970.488 370.549 970.168 371.232C969.87 371.915 969.72 372.725 969.72 373.664V384H967.608ZM978.077 384V367.04H979.901L980.029 371.68L979.741 371.52C980.018 370.005 980.52 368.885 981.245 368.16C981.97 367.413 982.973 367.04 984.253 367.04H985.725V369.088H984.189C983.336 369.088 982.61 369.28 982.013 369.664C981.416 370.027 980.957 370.549 980.637 371.232C980.338 371.915 980.189 372.725 980.189 373.664V384H978.077ZM992.932 384.384C991.225 384.384 989.86 383.979 988.836 383.168C987.812 382.336 987.3 381.216 987.3 379.808C987.3 378.4 987.748 377.291 988.644 376.48C989.54 375.669 990.852 375.104 992.58 374.784L998.852 373.6C998.852 371.915 998.489 370.677 997.764 369.888C997.039 369.077 995.94 368.672 994.468 368.672C993.167 368.672 992.132 368.981 991.364 369.6C990.596 370.219 990.084 371.093 989.828 372.224L987.588 372.032C987.908 370.389 988.655 369.088 989.828 368.128C991.023 367.147 992.569 366.656 994.468 366.656C996.58 366.656 998.191 367.253 999.3 368.448C1000.41 369.643 1000.96 371.349 1000.96 373.568V380.64C1000.96 381.216 1001.05 381.611 1001.22 381.824C1001.41 382.016 1001.71 382.112 1002.12 382.112H1002.63V384C1002.54 384.021 1002.41 384.032 1002.24 384.032C1002.09 384.053 1001.93 384.064 1001.76 384.064C1001.1 384.064 1000.55 383.947 1000.1 383.712C999.673 383.477 999.353 383.093 999.14 382.56C998.948 382.027 998.852 381.291 998.852 380.352L999.108 380.384C998.916 381.131 998.521 381.813 997.924 382.432C997.348 383.029 996.623 383.509 995.748 383.872C994.873 384.213 993.935 384.384 992.932 384.384ZM993.124 382.496C994.297 382.496 995.311 382.261 996.164 381.792C997.017 381.323 997.679 380.693 998.148 379.904C998.617 379.093 998.852 378.187 998.852 377.184V375.488L993.028 376.576C991.812 376.811 990.916 377.173 990.34 377.664C989.785 378.155 989.508 378.805 989.508 379.616C989.508 380.533 989.828 381.248 990.468 381.76C991.108 382.251 991.993 382.496 993.124 382.496ZM1006.65 384V365.28C1006.65 364.064 1006.99 363.093 1007.67 362.368C1008.36 361.643 1009.41 361.28 1010.84 361.28H1013.27V363.168H1011C1010.23 363.168 1009.67 363.371 1009.31 363.776C1008.94 364.16 1008.76 364.715 1008.76 365.44V384H1006.65ZM1004.25 368.928V367.04H1013.11V368.928H1004.25ZM1022.26 384.384C1020.72 384.384 1019.38 384.021 1018.23 383.296C1017.1 382.571 1016.22 381.547 1015.6 380.224C1014.98 378.88 1014.68 377.312 1014.68 375.52C1014.68 373.707 1014.98 372.139 1015.6 370.816C1016.22 369.493 1017.1 368.469 1018.23 367.744C1019.38 367.019 1020.72 366.656 1022.26 366.656C1023.8 366.656 1025.13 367.019 1026.26 367.744C1027.39 368.469 1028.26 369.493 1028.88 370.816C1029.5 372.139 1029.81 373.707 1029.81 375.52C1029.81 377.312 1029.5 378.88 1028.88 380.224C1028.26 381.547 1027.39 382.571 1026.26 383.296C1025.13 384.021 1023.8 384.384 1022.26 384.384ZM1022.26 382.368C1023.92 382.368 1025.22 381.76 1026.16 380.544C1027.12 379.307 1027.6 377.632 1027.6 375.52C1027.6 373.408 1027.12 371.744 1026.16 370.528C1025.22 369.291 1023.92 368.672 1022.26 368.672C1020.6 368.672 1019.28 369.291 1018.32 370.528C1017.36 371.744 1016.88 373.408 1016.88 375.52C1016.88 377.632 1017.36 379.307 1018.32 380.544C1019.28 381.76 1020.6 382.368 1022.26 382.368ZM1033.61 384V367.04H1035.43L1035.56 371.68L1035.27 371.52C1035.55 370.005 1036.05 368.885 1036.78 368.16C1037.5 367.413 1038.5 367.04 1039.78 367.04H1041.26V369.088H1039.72C1038.87 369.088 1038.14 369.28 1037.54 369.664C1036.95 370.027 1036.49 370.549 1036.17 371.232C1035.87 371.915 1035.72 372.725 1035.72 373.664V384H1033.61ZM1044.08 384V367.04H1046L1046.09 371.616L1045.81 371.36C1045.93 370.421 1046.24 369.6 1046.73 368.896C1047.22 368.192 1047.84 367.648 1048.59 367.264C1049.34 366.859 1050.17 366.656 1051.09 366.656C1052.47 366.656 1053.62 367.104 1054.54 368C1055.46 368.875 1056.01 370.091 1056.21 371.648L1055.76 371.584C1055.91 370.56 1056.22 369.685 1056.69 368.96C1057.18 368.213 1057.81 367.648 1058.57 367.264C1059.34 366.859 1060.21 366.656 1061.17 366.656C1062.3 366.656 1063.27 366.923 1064.08 367.456C1064.89 367.968 1065.51 368.704 1065.93 369.664C1066.36 370.624 1066.57 371.776 1066.57 373.12V384H1064.46V373.76C1064.46 372.075 1064.13 370.784 1063.47 369.888C1062.83 368.992 1061.9 368.544 1060.69 368.544C1059.83 368.544 1059.07 368.768 1058.41 369.216C1057.77 369.664 1057.26 370.293 1056.88 371.104C1056.51 371.915 1056.33 372.864 1056.33 373.952V384H1054.22V373.856C1054.22 372.213 1053.92 370.923 1053.33 369.984C1052.75 369.024 1051.83 368.544 1050.57 368.544C1049.72 368.544 1048.96 368.768 1048.3 369.216C1047.64 369.664 1047.12 370.283 1046.73 371.072C1046.37 371.861 1046.19 372.789 1046.19 373.856V384H1044.08ZM1085.14 382.304V367.008H1087.12V382.304H1085.14ZM1078.48 375.648V373.696H1093.78V375.648H1078.48ZM1103.72 384L1112.01 361.28H1114.89L1123.14 384H1120.77L1118.34 377.184H1108.52L1106.09 384H1103.72ZM1109.25 375.072H1117.61L1113.45 363.232L1109.25 375.072ZM1127.94 384L1121.83 361.28H1124.19L1129.31 381.12L1134.24 361.28H1136.8L1141.73 381.12L1146.85 361.28H1149.22L1143.11 384H1140.29L1135.52 365.056L1130.75 384H1127.94ZM1160.2 384.512C1158.52 384.512 1157.02 384.181 1155.72 383.52C1154.44 382.859 1153.43 381.952 1152.68 380.8C1151.93 379.627 1151.52 378.304 1151.43 376.832L1153.71 376.672C1153.79 377.803 1154.11 378.805 1154.67 379.68C1155.22 380.533 1155.97 381.195 1156.91 381.664C1157.84 382.133 1158.96 382.368 1160.27 382.368C1161.4 382.368 1162.38 382.208 1163.21 381.888C1164.04 381.568 1164.68 381.099 1165.13 380.48C1165.58 379.861 1165.8 379.115 1165.8 378.24C1165.8 377.493 1165.63 376.832 1165.29 376.256C1164.95 375.68 1164.29 375.147 1163.31 374.656C1162.32 374.165 1160.89 373.696 1159.02 373.248C1157.29 372.821 1155.9 372.352 1154.86 371.84C1153.83 371.328 1153.09 370.699 1152.62 369.952C1152.15 369.184 1151.91 368.224 1151.91 367.072C1151.91 365.856 1152.21 364.779 1152.81 363.84C1153.41 362.88 1154.26 362.133 1155.37 361.6C1156.5 361.045 1157.84 360.768 1159.4 360.768C1161.07 360.768 1162.48 361.099 1163.66 361.76C1164.83 362.4 1165.75 363.264 1166.41 364.352C1167.07 365.419 1167.45 366.603 1167.56 367.904L1165.29 368.064C1165.2 367.104 1164.93 366.229 1164.46 365.44C1163.99 364.651 1163.33 364.032 1162.47 363.584C1161.62 363.136 1160.57 362.912 1159.34 362.912C1157.74 362.912 1156.48 363.296 1155.56 364.064C1154.64 364.811 1154.19 365.792 1154.19 367.008C1154.19 367.776 1154.36 368.416 1154.7 368.928C1155.04 369.419 1155.65 369.856 1156.52 370.24C1157.4 370.603 1158.64 370.987 1160.27 371.392C1162.27 371.861 1163.84 372.427 1164.97 373.088C1166.12 373.728 1166.93 374.464 1167.4 375.296C1167.87 376.128 1168.11 377.077 1168.11 378.144C1168.11 379.445 1167.75 380.576 1167.05 381.536C1166.37 382.496 1165.43 383.232 1164.23 383.744C1163.06 384.256 1161.72 384.512 1160.2 384.512Z" fill="black"/>
<defs>
<clipPath id="clip0_5_17">
<rect width="400" height="400" fill="white" transform="translate(100 100)"/>
</clipPath>
<clipPath id="clip1_5_17">
<rect width="369.531" height="400" fill="white" transform="translate(115.625 100)"/>
</clipPath>
</defs>
</svg>
